<?xml version="1.0" encoding="UTF-8"?>
<svg id="Calque_2" data-name="Calque 2" xmlns="http://www.w3.org/2000/svg" viewBox="0 0 66.93 66.93">
  <defs>
    <style>
      .cls-1 {
        fill: #0e0e10;
      }

      .cls-1, .cls-2 {
        stroke-width: 0px;
      }

      .cls-2 {
        fill: #1d1d1b;
      }
    </style>
  </defs>
  <g id="Calque_1-2" data-name="Calque 1">
    <g>
      <g>
        <path class="cls-1" d="M4.45,16.8C13.63.74,34.23-4.79,50.32,4.53c15.87,9.19,21.35,29.61,12.14,45.64-9.21,16.03-29.62,21.51-45.7,12.28C.76,53.26-4.74,32.84,4.45,16.8ZM61.08,49.3c8.68-15.37,3.56-34.61-11.77-43.41C34.03-2.89,14.74,2.25,5.91,17.61c-8.81,15.31-3.62,34.63,11.76,43.44,15.34,8.79,34.52,3.49,43.41-11.75Z"/>
        <path class="cls-1" d="M19.17,58.45C5.45,50.66.63,32.94,8.48,19.15,16.3,5.43,34,.62,47.78,8.47c13.73,7.82,18.53,25.5,10.68,39.29-7.81,13.72-25.49,18.53-39.29,10.69ZM46.96,9.97c-12.97-7.46-29.49-2.99-36.97,9.99-7.46,12.96-3.01,29.48,9.97,36.97,12.96,7.49,29.56,3,37.02-10,7.44-12.99,2.97-29.5-10.01-36.96Z"/>
        <path class="cls-1" d="M44.06,12.82c.27.16.55.31.82.47.47.28.71.66.41,1.18-.29.52-.75.54-1.22.27-.92-.53-1.88-.98-2.88-1.35-6-2.24-11.87-1.89-17.59.96-.85.42-1.32.41-1.61-.08-.29-.5-.02-.97.86-1.41,6.08-3.04,12.32-3.42,18.71-1.12.85.31,1.69.65,2.49,1.07Z"/>
      </g>
      <g>
        <path class="cls-2" d="M20.74,24.17v20.39h4.95c.95,0,1.71-.07,2.25-.21.55-.14,1.09-.49,1.62-1.04.53-.55.94-1.2,1.23-1.96s.6-1.81.93-3.16h.77l-.61,7.21H13.35v-.84h3.47v-20.39h-3.47v-.84h11.06v.84h-3.67Z"/>
        <path class="cls-2" d="M28.37,23.33h7.91l4.72,15.6h.07l4.76-15.6h7.72v.84h-3.27v20.39h3.27v.84h-10.38v-.84h3.37v-20.77h-.07l-6.56,21.6h-.76l-6.57-21.6h-.07v20.77h3.37v.84h-7.52v-.84h3.31v-20.39h-3.31v-.84Z"/>
      </g>
    </g>
  </g>
</svg>